STARTFONT 2.1
COMMENT "$XConsortium: sys26.bdf /main/2 1996/10/29 18:24:21 drk $"
COMMENT "Hand-pixeled glyphs created with modified X Font Editor (Xfed)"
FONT -HP-HP System-Medium-R-Normal-Sans-21-210-72-72-P-123-ISO8859-1
SIZE 21 72 72 
FONTBOUNDINGBOX 19 26 0 -6
STARTPROPERTIES 25
COMMENT "Begin X Logical Font Description (XLFD) Version 1.5"
COPYRIGHT "(c) Copyright 1994, Hewlett Packard Company"
NOTICE "Created by the User Interaction Design Group, July 1994."
NOTICE "Hewlett Packard Company, 3000 Hanover St., Palo Alto, CA 94303, USA"
FONTNAME_REGISTRY ""
FOUNDRY "HP"
FAMILY_NAME "HP System"
WEIGHT_NAME "Medium"
SLANT "R"
ADD_STYLE_NAME "Sans"
SETWIDTH_NAME "Normal"
PIXEL_SIZE 21
POINT_SIZE 210
RESOLUTION_X 72
RESOLUTION_Y 72
SPACING "P"
AVERAGE_WIDTH 123
CHARSET_REGISTRY "ISO8859"
CHARSET_ENCODING "1"
COMMENT "End X Logical Font Description (XLFD)"
CHARSET_COLLECTIONS "ISO8859-1"
FULL_NAME "HP System26"
CAP_HEIGHT 16
X_HEIGHT 10
FONT_ASCENT 20
FONT_DESCENT 6
DEFAULT_CHAR 32
COMMENT "End of Font Properties"
ENDPROPERTIES
CHARS 191
STARTCHAR PrintableSpace
ENCODING 32
SWIDTH 333 0
DWIDTH 7 0
BBX 1 26 0 -6
BITMAP
0000
0000
0000
0000
0000
0000
0000
0000
0000
0000
0000
0000
0000
0000
0000
0000
0000
0000
0000
00
0000
0000
0000
0000
0000
0000
ENDCHAR
STARTCHAR Exclamation
ENCODING 33
SWIDTH 428 0
DWIDTH 9 0
BBX 3 26 3 -6
BITMAP
0000
0000
0000
E0
E0
E0
E0
E0
E0
E0
E0
E0
E0
E0
E0
00
00
00
E0
E0
E0
0000
0000
0000
0000
0000
ENDCHAR
STARTCHAR NeutrlDblQuote
ENCODING 34
SWIDTH 380 0
DWIDTH 8 0
BBX 6 26 1 -6
BITMAP
0000
0000
0000
CC
CC
CC
CC
CC
CC
0000
0000
0000
0000
0000
0000
0000
0000
0000
0000
0000
0000
0000
0000
0000
0000
0000
ENDCHAR
STARTCHAR NumberSign
ENCODING 35
SWIDTH 761 0
DWIDTH 16 0
BBX 14 26 1 -6
BITMAP
0000
0000
0000
0318
0318
0318
0630
0630
3ffc
3ffc
0c60
0c60
18c0
18c0
fff0
fff0
3180
3180
6300
6300
6300
0000
0000
0000
0000
0000
ENDCHAR
STARTCHAR DollarSign
ENCODING 36
SWIDTH 571 0
DWIDTH 12 0
BBX 11 26 1 -6
BITMAP
0000
0400
0400
0400
1e00
7f80
e5c0
c4c0
c400
e400
7400
3e00
0f80
05c0
04e0
0460
c460
e4e0
7fc0
1f00
0400
0400
0400
0000
0000
0000
ENDCHAR
STARTCHAR PerCentSign
ENCODING 37
SWIDTH 952 0
DWIDTH 20 0
BBX 18 26 1 -6
BITMAP
0000
0000
0000
180c00
7e0c00
661800
c31800
c33000
c33000
666000
7e6000
18c000
00c600
019f80
019980
0330c0
0330c0
0630c0
061980
0c1f80
0c0600
0000
0000
0000
0000
0000
ENDCHAR
STARTCHAR Ampersand
ENCODING 38
SWIDTH 619 0
DWIDTH 13 0
BBX 12 26 1 -6
BITMAP
0000
0000
0000
1f00
3f80
7180
6000
6000
6080
30c0
1ff0
3ff0
70c0
e0c0
c0c0
c0c0
c0c0
c0c0
e0e0
7fe0
3f80
0000
0000
0000
0000
0000
ENDCHAR
STARTCHAR SingleCloseQut
ENCODING 39
SWIDTH 333 0
DWIDTH 7 0
BBX 5 26 1 -6
BITMAP
0000
0000
0000
3800
38
38
70
60
C0
80
0000
0000
0000
0000
0000
0000
0000
0000
0000
0000
0000
0000
0000
0000
0000
0000
ENDCHAR
STARTCHAR OpenParen
ENCODING 40
SWIDTH 380 0
DWIDTH 8 0
BBX 5 26 2 -6
BITMAP
0000
0000
18
30
30
60
60
60
C0
C0
C0
C0
C0
C0
C0
C0
60
60
60
30
30
18
00
00
0000
0000
ENDCHAR
STARTCHAR CloseParen
ENCODING 41
SWIDTH 380 0
DWIDTH 8 0
BBX 5 26 1 -6
BITMAP
0000
0000
C0
60
60
30
30
30
18
18
18
18
18
18
18
18
30
30
30
60
60
c0
00
00
0000
0000
ENDCHAR
STARTCHAR Asterisk
ENCODING 42
SWIDTH 761 0
DWIDTH 16 0
BBX 12 26 2 -6
BITMAP
0000
0000
0000
0000
0000
0000
0600
4620
E670
76E0
3FC0
1F80
1F80
3FC0
76E0
E670
4620
0600
0000
0000
0000
0000
0000
0000
0000
0000
ENDCHAR
STARTCHAR PlusSign
ENCODING 43
SWIDTH 761 0
DWIDTH 16 0
BBX 12 26 2 -6
BITMAP
0000
0000
0000
0000
0000
0000
0600
0600
0600
0600
0600
FFF0
FFF0
0600
0600
0600
0600
0600
0000
0000
0000
0000
0000
0000
0000
0000
ENDCHAR
STARTCHAR Comma
ENCODING 44
SWIDTH 333 0
DWIDTH 7 0
BBX 5 26 1 -6
BITMAP
0000
0000
0000
0000
0000
0000
0000
0000
0000
0000
0000
0000
0000
0000
0000
0000
3800
38
38
70
60
C0
80
0000
0000
0000
ENDCHAR
STARTCHAR Hyphen
ENCODING 45
SWIDTH 761 0
DWIDTH 16 0
BBX 12 26 2 -6
BITMAP
0000
0000
0000
0000
0000
0000
0000
0000
0000
0000
0000
FFF0
FFF0
0000
0000
0000
0000
0000
0000
0000
0000
0000
0000
0000
0000
0000
ENDCHAR
STARTCHAR Period
ENCODING 46
SWIDTH 333 0
DWIDTH 7 0
BBX 3 26 2 -6
BITMAP
0000
0000
0000
0000
0000
0000
0000
0000
0000
0000
0000
0000
0000
0000
0000
0000
0000
E0
E0
E0
0000
0000
0000
0000
0000
0000
ENDCHAR
STARTCHAR Slash
ENCODING 47
SWIDTH 571 0
DWIDTH 12 0
BBX 11 26 1 -6
BITMAP
0000
0000
0060
0060
00c0
00c0
0180
0180
0300
0300
0600
0600
0c00
0c00
1800
1800
3000
3000
6000
6000
c000
c000
0000
0000
0000
0000
ENDCHAR
STARTCHAR Zero
ENCODING 48
SWIDTH 571 0
DWIDTH 12 0
BBX 10 26 1 -6
BITMAP
0000
0000
0000
0000
1E00
3F00
6180
6180
C0C0
C0C0
C0C0
C0C0
C0C0
C0C0
C0C0
C0C0
6180
6180
3F00
1E00
0000
0000
0000
0000
0000
0000
ENDCHAR
STARTCHAR One
ENCODING 49
SWIDTH 571 0
DWIDTH 12 0
BBX 6 26 3 -6
BITMAP
0000
0000
0000
0000
0c
1c
3c
6c
cc
0c
0c
0c
0c
0c
0c
0c
0c
0c
0c
0c
0000
0000
0000
0000
0000
0000
ENDCHAR
STARTCHAR Two
ENCODING 50
SWIDTH 571 0
DWIDTH 12 0
BBX 10 26 1 -6
BITMAP
0000
0000
0000
0000
1E00
7F80
E1C0
C0C0
C0C0
00C0
0180
0380
0700
0E00
1C00
3800
7000
E000
FFC0
FFC0
0000
0000
0000
0000
0000
0000
ENDCHAR
STARTCHAR Three
ENCODING 51
SWIDTH 571 0
DWIDTH 12 0
BBX 10 26 1 -6
BITMAP
0000
0000
0000
0000
1E00
7F80
E1C0
C0C0
00C0
00C0
0180
0F00
0F80
01C0
00C0
00C0
C0C0
E1C0
7F80
1E00
0000
0000
0000
0000
0000
0000
ENDCHAR
STARTCHAR Four
ENCODING 52
SWIDTH 571 0
DWIDTH 12 0
BBX 11 26 1 -6
BITMAP
0000
0000
0000
0000
0380
0780
0780
0d80
1980
1980
3180
6180
6180
c180
ffe0
ffe0
0180
0180
0180
0180
0000
0000
0000
0000
0000
0000
ENDCHAR
STARTCHAR Five
ENCODING 53
SWIDTH 571 0
DWIDTH 12 0
BBX 10 26 1 -6
BITMAP
0000
0000
0000
0000
FF80
FF80
C000
C000
C000
DE00
FF80
E180
00C0
00C0
00C0
00C0
C0C0
E180
7F80
1E00
0000
0000
0000
0000
0000
0000
ENDCHAR
STARTCHAR Six
ENCODING 54
SWIDTH 571 0
DWIDTH 12 0
BBX 10 26 1 -6
BITMAP
0000
0000
0000
0000
1E00
7F80
6180
C000
C000
C000
DE00
FF80
E180
C0C0
C0C0
C0C0
C0C0
6180
7F80
1E00
0000
0000
0000
0000
0000
0000
ENDCHAR
STARTCHAR Seven
ENCODING 55
SWIDTH 571 0
DWIDTH 12 0
BBX 10 26 1 -6
BITMAP
0000
0000
0000
0000
FFC0
FFC0
01c0
0180
0380
0300
0700
0600
0600
0e00
0c00
0c00
1c00
1800
1800
1800
0000
0000
0000
0000
0000
0000
ENDCHAR
STARTCHAR Eight
ENCODING 56
SWIDTH 571 0
DWIDTH 12 0
BBX 10 26 1 -6
BITMAP
0000
0000
0000
0000
1E00
7F80
6180
C0C0
C0C0
C0C0
6180
3F00
7F80
6180
C0C0
C0C0
C0C0
6180
7F80
1E00
0000
0000
0000
0000
0000
0000
ENDCHAR
STARTCHAR Nine
ENCODING 57
SWIDTH 571 0
DWIDTH 12 0
BBX 10 26 1 -6
BITMAP
0000
0000
0000
0000
1E00
7F80
6180
C0C0
C0C0
C0C0
C0C0
61C0
7FC0
1EC0
00C0
00C0
00C0
6180
7F80
1E00
0000
0000
0000
0000
0000
0000
ENDCHAR
STARTCHAR Colon
ENCODING 58
SWIDTH 333 0
DWIDTH 7 0
BBX 3 26 2 -6
BITMAP
0000
0000
0000
0000
0000
0000
0000
0000
0000
0000
E0
E0
E0
00
00
00
00
E0
E0
E0
0000
0000
0000
0000
0000
0000
ENDCHAR
STARTCHAR Simicolon
ENCODING 59
SWIDTH 380 0
DWIDTH 8 0
BBX 5 26 1 -6
BITMAP
0000
0000
0000
0000
0000
0000
0000
0000
0000
0000
38
38
38
00
00
00
00
38
38
70
60
C0
80
0000
0000
0000
ENDCHAR
STARTCHAR LessThanSign
ENCODING 60
SWIDTH 761 0
DWIDTH 16 0
BBX 12 26 2 -6
BITMAP
0000
0000
0000
0000
0000
0000
0030
00F0
03C0
0F00
3C00
F000
F000
3C00
0F00
03C0
00F0
0030
0000
0000
0000
0000
0000
0000
0000
0000
ENDCHAR
STARTCHAR EqualsSign
ENCODING 61
SWIDTH 761 0
DWIDTH 16 0
BBX 12 26 2 -6
BITMAP
0000
0000
0000
0000
0000
0000
0000
0000
0000
FFF0
FFF0
0000
0000
FFF0
FFF0
0000
0000
0000
0000
0000
0000
0000
0000
0000
0000
0000
ENDCHAR
STARTCHAR GreatrThanSign
ENCODING 62
SWIDTH 761 0
DWIDTH 16 0
BBX 12 26 2 -6
BITMAP
0000
0000
0000
0000
0000
0000
C000
F000
3C00
0F00
03C0
00F0
00F0
03C0
0F00
3C00
F000
C000
0000
0000
0000
0000
0000
0000
0000
0000
ENDCHAR
STARTCHAR QuestionMark
ENCODING 63
SWIDTH 523 0
DWIDTH 11 0
BBX 9 26 1 -6
BITMAP
0000
0000
0000
3E00
7F00
e380
c180
0180
0380
0300
0700
0E00
0C00
1C00
1C00
1C00
0000
0000
1C00
1C00
1C00
0000
0000
0000
0000
0000
ENDCHAR
STARTCHAR CommerclAtSign
ENCODING 64
SWIDTH 761 0
DWIDTH 16 0
BBX 14 26 1 -6
BITMAP
0000
0000
0000
07c0
1FF0
3830
6018
6018
c1d8
c7f8
c638
cc18
cc18
cc18
c638
c7fc
61cc
6000
7800
3Ff8
0ff0
0000
0000
0000
0000
0000
ENDCHAR
STARTCHAR A
ENCODING 65
SWIDTH 761 0
DWIDTH 16 0
BBX 14 26 1 -6
BITMAP
0000
0000
0000
0000
0300
0300
0780
0780
0CC0
0CC0
1CE0
1860
3870
3030
7FF8
7FF8
6018
e01C
C00C
C00C
0000
0000
0000
0000
0000
0000
ENDCHAR
STARTCHAR B
ENCODING 66
SWIDTH 619 0
DWIDTH 13 0
BBX 11 26 1 -6
BITMAP
0000
0000
0000
0000
fe00
ff80
c180
c0c0
c0c0
c0c0
c180
ff00
ff80
c0c0
c060
c060
c060
c0c0
ffc0
ff00
0000
0000
0000
0000
0000
0000
ENDCHAR
STARTCHAR C
ENCODING 67
SWIDTH 761 0
DWIDTH 16 0
BBX 14 26 1 -6
BITMAP
0000
0000
0000
0000
07C0
1FF0
3C78
701C
600C
E000
C000
C000
C000
C000
E000
600C
701C
3C78
1FF0
07C0
0000
0000
0000
0000
0000
0000
ENDCHAR
STARTCHAR D
ENCODING 68
SWIDTH 666 0
DWIDTH 14 0
BBX 12 26 1 -6
BITMAP
0000
0000
0000
0000
fe00
ff80
c3c0
c0e0
c060
c070
c030
c030
c030
c030
c070
c060
c0e0
c3c0
ff80
fe00
0000
0000
0000
0000
0000
0000
ENDCHAR
STARTCHAR E
ENCODING 69
SWIDTH 571 0
DWIDTH 12 0
BBX 10 26 1 -6
BITMAP
0000
0000
0000
0000
FFc0
FFc0
C000
C000
C000
C000
C000
FFc0
FFc0
C000
C000
C000
C000
C000
FFc0
FFc0
0000
0000
0000
0000
0000
0000
ENDCHAR
STARTCHAR F
ENCODING 70
SWIDTH 571 0
DWIDTH 12 0
BBX 10 26 1 -6
BITMAP
0000
0000
0000
0000
FFC0
FFC0
C000
C000
C000
C000
C000
FFC0
FFC0
C000
C000
C000
C000
C000
C000
C000
0000
0000
0000
0000
0000
0000
ENDCHAR
STARTCHAR G
ENCODING 71
SWIDTH 761 0
DWIDTH 16 0
BBX 14 26 1 -6
BITMAP
0000
0000
0000
0000
07C0
1FF0
3C78
701C
600C
E000
C000
C000
C0FC
C0FC
E00C
600C
700C
3C3C
1FF8
07E0
0000
0000
0000
0000
0000
0000
ENDCHAR
STARTCHAR H
ENCODING 72
SWIDTH 666 0
DWIDTH 14 0
BBX 12 26 1 -6
BITMAP
0000
0000
0000
0000
C030
C030
C030
C030
C030
C030
C030
FFF0
FFF0
C030
C030
C030
C030
C030
C030
C030
0000
0000
0000
0000
0000
0000
ENDCHAR
STARTCHAR I
ENCODING 73
SWIDTH 285 0
DWIDTH 6 0
BBX 2 26 2 -6
BITMAP
0000
0000
0000
0000
C0
C0
C0
C0
C0
C0
C0
C0
C0
C0
C0
C0
C0
C0
C0
C0
0000
0000
0000
0000
0000
0000
ENDCHAR
STARTCHAR J
ENCODING 74
SWIDTH 523 0
DWIDTH 11 0
BBX 9 26 1 -6
BITMAP
0000
0000
0000
0000
0180
0180
0180
0180
0180
0180
0180
0180
0180
0180
0180
c180
c180
e380
7f00
3e00
0000
0000
0000
0000
0000
0000
ENDCHAR
STARTCHAR K
ENCODING 75
SWIDTH 666 0
DWIDTH 14 0
BBX 13 26 1 -6
BITMAP
0000
0000
0000
0000
C070
C0E0
C1C0
C380
C700
CE00
DC00
F800
FC00
CE00
C700
C380
C1C0
C0E0
C070
C038
0000
0000
0000
0000
0000
0000
ENDCHAR
STARTCHAR L
ENCODING 76
SWIDTH 571 0
DWIDTH 12 0
BBX 10 26 1 -6
BITMAP
0000
0000
0000
0000
C000
C000
C000
C000
C000
C000
C000
C000
C000
C000
C000
C000
C000
C000
FFC0
FFC0
0000
0000
0000
0000
0000
0000
ENDCHAR
STARTCHAR M
ENCODING 77
SWIDTH 809 0
DWIDTH 17 0
BBX 15 26 1 -6
BITMAP
0000
0000
0000
0000
c006
e00e
e00e
f01e
f01e
f83e
d836
dc76
cc66
cee6
c6c6
c7c6
c386
c386
c106
c006
0000
0000
0000
0000
0000
0000
ENDCHAR
STARTCHAR N
ENCODING 78
SWIDTH 666 0
DWIDTH 14 0
BBX 12 26 1 -6
BITMAP
0000
0000
0000
0000
e030
f030
F030
d830
D830
cc30
CC30
C630
C630
C330
C330
C1b0
C1B0
C0F0
C0f0
C070
0000
0000
0000
0000
0000
0000
ENDCHAR
STARTCHAR O
ENCODING 79
SWIDTH 809 0
DWIDTH 17 0
BBX 15 26 1 -6
BITMAP
0000
0000
0000
0000
07C0
1FF0
3C78
701C
600C
E00E
C006
C006
C006
C006
E00E
600C
701C
3C78
1FF0
07C0
0000
0000
0000
0000
0000
0000
ENDCHAR
STARTCHAR P
ENCODING 80
SWIDTH 571 0
DWIDTH 12 0
BBX 10 26 1 -6
BITMAP
0000
0000
0000
0000
fe00
ff80
c180
c0c0
c0c0
c0c0
c1c0
ff80
fe00
c000
c000
c000
c000
c000
c000
c000
0000
0000
0000
0000
0000
0000
ENDCHAR
STARTCHAR Q
ENCODING 81
SWIDTH 809 0
DWIDTH 17 0
BBX 15 26 1 -6
BITMAP
0000
0000
0000
0000
07C0
1FF0
3C78
701C
600C
E00E
C006
C006
C006
C006
E08E
61CC
70FC
3C78
1FF8
07DC
000E
0000
0000
0000
0000
0000
ENDCHAR
STARTCHAR R
ENCODING 82
SWIDTH 571 0
DWIDTH 12 0
BBX 10 26 1 -6
BITMAP
0000
0000
0000
0000
fe00
ff80
c180
c0c0
c0c0
c0c0
c180
ff80
ff00
c380
c180
c0c0
c0c0
c0c0
c0c0
c0c0
0000
0000
0000
0000
0000
0000
ENDCHAR
STARTCHAR S
ENCODING 83
SWIDTH 666 0
DWIDTH 14 0
BBX 12 26 1 -6
BITMAP
0000
0000
0000
0000
1F00
7FC0
E1E0
C060
C000
E000
7800
3F00
0FC0
01E0
0070
0030
C030
F070
7FE0
1F80
0000
0000
0000
0000
0000
0000
ENDCHAR
STARTCHAR T
ENCODING 84
SWIDTH 571 0
DWIDTH 12 0
BBX 12 26 0 -6
BITMAP
0000
0000
0000
0000
FFF0
FFF0
0600
0600
0600
0600
0600
0600
0600
0600
0600
0600
0600
0600
0600
0600
0000
0000
0000
0000
0000
0000
ENDCHAR
STARTCHAR U
ENCODING 85
SWIDTH 666 0
DWIDTH 14 0
BBX 12 26 1 -6
BITMAP
0000
0000
0000
0000
C030
C030
C030
C030
C030
C030
C030
C030
C030
C030
C030
C030
6060
70E0
3FC0
0F00
0000
0000
0000
0000
0000
0000
ENDCHAR
STARTCHAR V
ENCODING 86
SWIDTH 666 0
DWIDTH 14 0
BBX 12 26 1 -6
BITMAP
0000
0000
0000
0000
C030
c030
c030
6060
6060
6060
30c0
30c0
30c0
1980
1980
1980
0f00
0f00
0600
0600
0000
0000
0000
0000
0000
0000
ENDCHAR
STARTCHAR W
ENCODING 87
SWIDTH 952 0
DWIDTH 20 0
BBX 19 26 1 -6
BITMAP
0000
0000
0000
0000
C04060
C04060
c0E060
c0E060
60e0C0
61B0C0
61B0c0
31B180
331980
331980
1B1B00
1a0F00
1E0F00
0C0600
0C0600
0C0600
0000
0000
0000
0000
0000
0000
ENDCHAR
STARTCHAR X
ENCODING 88
SWIDTH 809 0
DWIDTH 17 0
BBX 17 26 0 -6
BITMAP
0000
0000
0000
0000
E00380
700700
380E00
1C1C00
0E3800
077000
03E000
01C000
01C000
03E000
077000
0E3800
1C1C00
380E00
700700
E00380
0000
0000
0000
0000
0000
0000
ENDCHAR
STARTCHAR Y
ENCODING 89
SWIDTH 761 0
DWIDTH 16 0
BBX 14 26 1 -6
BITMAP
0000
0000
0000
0000
c00c
c00C
6018
7038
3030
1860
1ce0
0fc0
0780
0300
0300
0300
0300
0300
0300
0300
0000
0000
0000
0000
0000
0000
ENDCHAR
STARTCHAR Z
ENCODING 90
SWIDTH 619 0
DWIDTH 13 0
BBX 11 26 1 -6
BITMAP
0000
0000
0000
0000
ffe0
ffe0
0060
00e0
01c0
0380
0700
0e00
1c00
3800
7000
6000
c000
c000
ffe0
ffe0
0000
0000
0000
0000
0000
0000
ENDCHAR
STARTCHAR OpenBracket
ENCODING 91
SWIDTH 380 0
DWIDTH 8 0
BBX 5 26 2 -6
BITMAP
0000
00
F8
f8
C0
C0
C0
C0
C0
C0
C0
C0
C0
C0
C0
C0
C0
C0
C0
C0
f8
F8
00
0000
0000
0000
ENDCHAR
STARTCHAR BackSlash
ENCODING 92
SWIDTH 571 0
DWIDTH 12 0
BBX 11 26 1 -6
BITMAP
0000
0000
c000
c000
6000
6000
3000
3000
1800
1800
0c00
0c00
0600
0600
0300
0300
0180
0180
00c0
00c0
0060
0060
0000
0000
0000
0000
ENDCHAR
STARTCHAR CloseBracket
ENCODING 93
SWIDTH 380 0
DWIDTH 8 0
BBX 5 26 1 -6
BITMAP
0000
00
f8
f8
18
18
18
18
18
18
18
18
18
18
18
18
18
18
18
18
f8
F8
00
0000
0000
0000
ENDCHAR
STARTCHAR Circumflex
ENCODING 94
SWIDTH 619 0
DWIDTH 13 0
BBX 9 26 2 -6
BITMAP
0000
0000
0000
0800
1c00
3e00
7700
c180
0000
0000
0000
0000
0000
0000
0000
0000
0000
0000
0000
0000
0000
0000
0000
0000
0000
0000
ENDCHAR
STARTCHAR Underscore
ENCODING 95
SWIDTH 571 0
DWIDTH 12 0
BBX 12 26 0 -6
BITMAP
0000
0000
0000
0000
0000
0000
0000
0000
0000
0000
0000
0000
0000
0000
0000
0000
0000
0000
0000
0000
FFF0
FFF0
0000
0000
0000
0000
ENDCHAR
STARTCHAR SingleOpenQuot
ENCODING 96
SWIDTH 333 0
DWIDTH 7 0
BBX 5 26 1 -6
BITMAP
0000
0000
08
18
30
70
E0
E0
e000
0000
0000
0000
0000
0000
0000
0000
0000
0000
0000
0000
0000
0000
0000
0000
0000
0000
ENDCHAR
STARTCHAR a
ENCODING 97
SWIDTH 571 0
DWIDTH 12 0
BBX 10 26 1 -6
BITMAP
0000
0000
0000
0000
0000
0000
0000
0000
0000
0000
1F00
7F80
61c0
00C0
1FC0
7FC0
E0C0
C1C0
FFC0
7cC0
0000
0000
0000
0000
0000
0000
ENDCHAR
STARTCHAR b
ENCODING 98
SWIDTH 571 0
DWIDTH 12 0
BBX 10 26 1 -6
BITMAP
0000
0000
0000
0000
C000
C000
C000
C000
C000
C000
DE00
FF80
E180
C0C0
C0C0
C0C0
C0C0
E180
FF80
DE00
0000
0000
0000
0000
0000
0000
ENDCHAR
STARTCHAR c
ENCODING 99
SWIDTH 523 0
DWIDTH 11 0
BBX 9 26 1 -6
BITMAP
0000
0000
0000
0000
0000
0000
0000
0000
0000
0000
1E00
7F80
6180
C000
C000
C000
C000
6180
7F80
1E00
0000
0000
0000
0000
0000
0000
ENDCHAR
STARTCHAR d
ENCODING 100
SWIDTH 571 0
DWIDTH 12 0
BBX 10 26 1 -6
BITMAP
0000
0000
0000
0000
00C0
00C0
00C0
00C0
00C0
00C0
1EC0
7FC0
61C0
C0C0
C0C0
C0C0
C0C0
61C0
7FC0
1EC0
0000
0000
0000
0000
0000
0000
ENDCHAR
STARTCHAR e
ENCODING 101
SWIDTH 571 0
DWIDTH 12 0
BBX 10 26 1 -6
BITMAP
0000
0000
0000
0000
0000
0000
0000
0000
0000
0000
1E00
7F80
6180
C0C0
FFC0
FFC0
C000
60C0
7Fc0
1F00
0000
0000
0000
0000
0000
0000
ENDCHAR
STARTCHAR f
ENCODING 102
SWIDTH 380 0
DWIDTH 8 0
BBX 8 26 0 -6
BITMAP
0000
0000
0000
0000
0f
1f
38
30
30
30
Ff
Ff
30
30
30
30
30
30
30
30
0000
0000
0000
0000
0000
0000
ENDCHAR
STARTCHAR g
ENCODING 103
SWIDTH 571 0
DWIDTH 12 0
BBX 10 26 1 -6
BITMAP
0000
0000
0000
0000
0000
0000
0000
0000
0000
0000
1EC0
7FC0
61C0
C0C0
C0C0
C0C0
C0C0
61C0
7FC0
1EC0
00C0
00C0
61C0
7F80
1F00
0000
ENDCHAR
STARTCHAR h
ENCODING 104
SWIDTH 523 0
DWIDTH 11 0
BBX 9 26 1 -6
BITMAP
0000
0000
0000
0000
C000
C000
C000
C000
C000
C000
DE00
FF00
E380
C180
C180
C180
C180
C180
C180
C180
0000
0000
0000
0000
0000
0000
ENDCHAR
STARTCHAR i
ENCODING 105
SWIDTH 285 0
DWIDTH 6 0
BBX 2 26 2 -6
BITMAP
0000
0000
0000
0000
C0
C0
C0
00
00
00
C0
C0
C0
C0
C0
C0
C0
C0
C0
C0
0000
0000
0000
0000
0000
0000
ENDCHAR
STARTCHAR j
ENCODING 106
SWIDTH 285 0
DWIDTH 6 0
BBX 4 26 0 -6
BITMAP
0000
0000
0000
0000
30
30
30
00
00
00
30
30
30
30
30
30
30
30
30
30
30
30
30
F0
E0
0000
ENDCHAR
STARTCHAR k
ENCODING 107
SWIDTH 476 0
DWIDTH 10 0
BBX 8 26 1 -6
BITMAP
0000
0000
0000
0000
C0
C0
C0
C0
C0
C0
C3
C6
CC
D8
F0
F0
D8
CC
C6
C3
0000
0000
0000
0000
0000
0000
ENDCHAR
STARTCHAR l
ENCODING 108
SWIDTH 285 0
DWIDTH 6 0
BBX 2 26 2 -6
BITMAP
0000
0000
0000
0000
C0
C0
C0
C0
C0
C0
C0
C0
C0
C0
C0
C0
C0
C0
C0
C0
0000
0000
0000
0000
0000
0000
ENDCHAR
STARTCHAR m
ENCODING 109
SWIDTH 761 0
DWIDTH 16 0
BBX 14 26 1 -6
BITMAP
0000
0000
0000
0000
0000
0000
0000
0000
0000
0000
dc70
fef8
e79c
c30c
c30c
c30c
c30c
c30c
c30c
c30c
0000
0000
0000
0000
0000
0000
ENDCHAR
STARTCHAR n
ENCODING 110
SWIDTH 523 0
DWIDTH 11 0
BBX 9 26 1 -6
BITMAP
0000
0000
0000
0000
0000
0000
0000
0000
0000
0000
DE00
FF00
E380
C180
C180
C180
C180
C180
C180
C180
0000
0000
0000
0000
0000
0000
ENDCHAR
STARTCHAR o
ENCODING 111
SWIDTH 571 0
DWIDTH 12 0
BBX 10 26 1 -6
BITMAP
0000
0000
0000
0000
0000
0000
0000
0000
0000
0000
1E00
7F80
6180
C0C0
C0C0
C0C0
C0C0
6180
7F80
1E00
0000
0000
0000
0000
0000
0000
ENDCHAR
STARTCHAR p
ENCODING 112
SWIDTH 571 0
DWIDTH 12 0
BBX 10 26 1 -6
BITMAP
0000
0000
0000
0000
0000
0000
0000
0000
0000
0000
DE00
FF80
E180
C0C0
C0C0
C0C0
C0C0
E180
FF80
DE00
C000
C000
C000
C000
C000
0000
ENDCHAR
STARTCHAR q
ENCODING 113
SWIDTH 571 0
DWIDTH 12 0
BBX 10 26 1 -6
BITMAP
0000
0000
0000
0000
0000
0000
0000
0000
0000
0000
1EC0
7FC0
61C0
C0C0
C0C0
C0C0
C0C0
61C0
7FC0
1EC0
00C0
00C0
00C0
00C0
00C0
0000
ENDCHAR
STARTCHAR r
ENCODING 114
SWIDTH 428 0
DWIDTH 9 0
BBX 7 26 1 -6
BITMAP
0000
0000
0000
0000
0000
0000
0000
0000
0000
0000
ce
de
f0
e0
C0
C0
C0
C0
C0
C0
0000
0000
0000
0000
0000
0000
ENDCHAR
STARTCHAR s
ENCODING 115
SWIDTH 523 0
DWIDTH 11 0
BBX 9 26 1 -6
BITMAP
0000
0000
0000
0000
0000
0000
0000
0000
0000
0000
3E00
7F80
C180
E000
7C00
1F00
0380
C180
FF80
3E00
0000
0000
0000
0000
0000
0000
ENDCHAR
STARTCHAR t
ENCODING 116
SWIDTH 428 0
DWIDTH 9 0
BBX 7 26 1 -6
BITMAP
0000
0000
0000
0000
0000
0000
10
30
30
30
Fe
Fe
30
30
30
30
30
30
3e
1e
0000
0000
0000
0000
0000
0000
ENDCHAR
STARTCHAR u
ENCODING 117
SWIDTH 523 0
DWIDTH 11 0
BBX 9 26 1 -6
BITMAP
0000
0000
0000
0000
0000
0000
0000
0000
0000
0000
C180
C180
C180
C180
C180
C180
C180
E380
7F80
3D80
0000
0000
0000
0000
0000
0000
ENDCHAR
STARTCHAR v
ENCODING 118
SWIDTH 571 0
DWIDTH 12 0
BBX 10 26 1 -6
BITMAP
0000
0000
0000
0000
0000
0000
0000
0000
0000
0000
C0C0
C0C0
6180
6180
3300
3300
1E00
1E00
0C00
0C00
0000
0000
0000
0000
0000
0000
ENDCHAR
STARTCHAR w
ENCODING 119
SWIDTH 761 0
DWIDTH 16 0
BBX 14 26 1 -6
BITMAP
0000
0000
0000
0000
0000
0000
0000
0000
0000
0000
C30C
C30C
C30C
6798
6798
6498
3CF0
3CF0
1860
1860
0000
0000
0000
0000
0000
0000
ENDCHAR
STARTCHAR x
ENCODING 120
SWIDTH 523 0
DWIDTH 11 0
BBX 11 26 0 -6
BITMAP
0000
0000
0000
0000
0000
0000
0000
0000
0000
0000
c060
e0c0
7180
3f00
1e00
0e00
1f00
3380
61c0
c0e0
0000
0000
0000
0000
0000
0000
ENDCHAR
STARTCHAR y
ENCODING 121
SWIDTH 571 0
DWIDTH 12 0
BBX 10 26 1 -6
BITMAP
0000
0000
0000
0000
0000
0000
0000
0000
0000
0000
C0C0
C0C0
6180
6180
3300
3300
1E00
1E00
0C00
0C00
1800
1800
3000
3000
6000
0000
ENDCHAR
STARTCHAR z
ENCODING 122
SWIDTH 523 0
DWIDTH 11 0
BBX 9 26 1 -6
BITMAP
0000
0000
0000
0000
0000
0000
0000
0000
0000
0000
FF80
FF80
0300
0600
0C00
1800
3000
6000
FF80
FF80
0000
0000
0000
0000
0000
0000
ENDCHAR
STARTCHAR OpenBrace
ENCODING 123
SWIDTH 523 0
DWIDTH 11 0
BBX 8 26 2 -6
BITMAP
0000
00
07
0c
18
18
18
18
18
18
38
F0
F0
38
18
18
18
18
18
18
0c
07
00
0000
0000
0000
ENDCHAR
STARTCHAR LongVertMark
ENCODING 124
SWIDTH 380 0
DWIDTH 8 0
BBX 2 26 2 -6
BITMAP
0000
0000
0000
C0
C0
C0
C0
C0
C0
C0
C0
00
00
C0
C0
C0
C0
C0
C0
C0
C0
0000
0000
0000
0000
0000
ENDCHAR
STARTCHAR CloseBrace
ENCODING 125
SWIDTH 523 0
DWIDTH 11 0
BBX 8 26 1 -6
BITMAP
0000
00
e0
30
18
18
18
18
18
18
1C
0F
0F
1C
18
18
18
18
18
18
30
e0
00
0000
0000
0000
ENDCHAR
STARTCHAR OneWavyLine
ENCODING 126
SWIDTH 714 0
DWIDTH 15 0
BBX 11 26 2 -6
BITMAP
0000
0000
0000
0000
0000
0000
0000
0000
0000
0000
7820
fe60
cfe0
83c0
0000
0000
0000
0000
0000
0000
0000
0000
0000
0000
0000
0000
ENDCHAR
STARTCHAR MediumShading
ENCODING 127
SWIDTH 857 0
DWIDTH 18 0
BBX 18 26 0 -6
BITMAP
aaaa80
555540
aaaa80
555540
aaaa80
555540
aaaa80
555540
aaaa80
555540
aaaa80
555540
aaaa80
555540
aaaa80
555540
aaaa80
555540
aaaa80
555540
aaaa80
555540
aaaa80
555540
aaaa80
555540
ENDCHAR
STARTCHAR InvExclamation
ENCODING 161
SWIDTH 428 0
DWIDTH 9 0
BBX 3 26 3 -6
BITMAP
0000
0000
0000
0000
E0
E0
E0
00
00
00
E0
E0
E0
E0
E0
E0
E0
E0
E0
E0
E0
E0
0000
0000
0000
0000
ENDCHAR
STARTCHAR CentSign
ENCODING 162
SWIDTH 571 0
DWIDTH 12 0
BBX 9 26 1 -6
BITMAP
0000
0000
0000
0000
0000
0180
0180
0100
1F00
7F80
6780
C400
CC00
CC00
C800
7980
7F80
3E00
2000
6000
6000
0000
0000
0000
0000
0000
ENDCHAR
STARTCHAR SterlingSign
ENCODING 163
SWIDTH 619 0
DWIDTH 13 0
BBX 11 26 1 -6
BITMAP
0000
0000
0000
0000
0780
1fc0
18e0
3060
3000
3000
ff00
ff00
3000
3000
ff00
ff00
3000
3000
ffe0
ffe0
0000
0000
0000
0000
0000
0000
ENDCHAR
STARTCHAR CurrencySymbol
ENCODING 164
SWIDTH 714 0
DWIDTH 15 0
BBX 13 26 1 -6
BITMAP
0000
0000
0000
0000
4010
E738
7FF0
38E0
3060
6030
6030
6030
3060
38E0
7FF0
E738
4010
0000
0000
0000
0000
0000
0000
0000
0000
0000
ENDCHAR
STARTCHAR Yensign
ENCODING 165
SWIDTH 666 0
DWIDTH 14 0
BBX 12 26 1 -6
BITMAP
0000
0000
0000
0000
C030
e070
6060
30c0
30C0
1980
7fe0
7Fe0
0600
0600
7fe0
7Fe0
0600
0600
0600
0600
0000
0000
0000
0000
0000
0000
ENDCHAR
STARTCHAR BrokenVertMark
ENCODING 166
SWIDTH 380 0
DWIDTH 8 0
BBX 2 26 2 -6
BITMAP
0000
0000
0000
C0
C0
C0
C0
C0
C0
C0
C0
00
00
C0
C0
C0
C0
C0
C0
C0
C0
0000
0000
0000
0000
0000
ENDCHAR
STARTCHAR SectionMark
ENCODING 167
SWIDTH 476 0
DWIDTH 10 0
BBX 8 26 1 -6
BITMAP
0000
0000
0000
0000
3c00
7e00
e700
e300
7000
3800
7c00
ce00
c600
c300
6300
7300
3e00
1c00
0e00
c700
e700
7e00
3c00
0000
0000
0000
ENDCHAR
STARTCHAR diaeresisAccnt
ENCODING 168
SWIDTH 523 0
DWIDTH 11 0
BBX 7 26 2 -6
BITMAP
0000
0000
0000
0000
C6
C6
c6
0000
0000
0000
0000
0000
0000
0000
0000
0000
0000
0000
0000
0000
0000
0000
0000
0000
0000
0000
ENDCHAR
STARTCHAR CopyrightSign
ENCODING 169
SWIDTH 619 0
DWIDTH 13 0
BBX 11 26 1 -6
BITMAP
0000
0000
0000
0000
0000
0000
1f00
71c0
4040
df60
b120
b020
b020
b120
de60
4040
71c0
1f00
0000
0000
0000
0000
0000
0000
0000
0000
ENDCHAR
STARTCHAR FemaleOrdinal
ENCODING 170
SWIDTH 523 0
DWIDTH 11 0
BBX 9 26 1 -6
BITMAP
0000
0000
0000
3E
63
03
3f
e3
c3
c7
7b
00
ff80
ff80
00
00
00
0000
0000
0000
0000
0000
0000
0000
0000
0000
ENDCHAR
STARTCHAR DblOpenAnglQut
ENCODING 171
SWIDTH 571 0
DWIDTH 12 0
BBX 10 26 1 -6
BITMAP
0000
0000
0000
0000
0000
0000
0000
18c0
3180
7380
6300
e700
e700
6300
7380
3180
18c0
0000
0000
0000
0000
0000
0000
0000
0000
0000
ENDCHAR
STARTCHAR NotSign
ENCODING 172
SWIDTH 761 0
DWIDTH 16 0
BBX 12 26 2 -6
BITMAP
0000
0000
0000
0000
0000
0000
0000
0000
0000
0000
0000
FFF0
FFF0
0030
0030
0030
0030
0000
0000
0000
0000
0000
0000
0000
0000
0000
ENDCHAR
STARTCHAR SoftHyphen
ENCODING 173
SWIDTH 761 0
DWIDTH 16 0
BBX 12 26 2 -6
BITMAP
0000
0000
0000
0000
0000
0000
0000
0000
0000
0000
0000
FFF0
FFF0
0000
0000
0000
0000
0000
0000
0000
0000
0000
0000
0000
0000
0000
ENDCHAR
STARTCHAR RegisTradeMark
ENCODING 174
SWIDTH 619 0
DWIDTH 13 0
BBX 11 26 1 -6
BITMAP
0000
0000
0000
0000
0000
0000
1f00
71c0
4040
de60
9b20
9b20
9e20
9b20
d960
4040
71c0
1f00
0000
0000
0000
0000
0000
0000
0000
0000
ENDCHAR
STARTCHAR macronAccent
ENCODING 175
SWIDTH 619 0
DWIDTH 13 0
BBX 9 26 2 -6
BITMAP
0000
0000
0000
0000
fF80
fF80
0000
0000
0000
0000
0000
0000
0000
0000
0000
0000
0000
0000
0000
0000
0000
0000
0000
0000
0000
0000
ENDCHAR
STARTCHAR DegreeSign
ENCODING 176
SWIDTH 428 0
DWIDTH 9 0
BBX 7 26 1 -6
BITMAP
0000
0000
0000
0000
38
6c
c6
C6
C6
6c
38
00
0000
0000
0000
0000
0000
0000
0000
0000
0000
0000
0000
0000
0000
0000
ENDCHAR
STARTCHAR PlusOverMinus
ENCODING 177
SWIDTH 761 0
DWIDTH 16 0
BBX 12 26 2 -6
BITMAP
0000
0000
0000
0000
0600
0600
0600
0600
FFF0
FFF0
0600
0600
0600
0600
0000
fff0
fff0
0000
0000
0000
0000
0000
0000
0000
0000
0000
ENDCHAR
STARTCHAR SupNumberTwo
ENCODING 178
SWIDTH 380 0
DWIDTH 8 0
BBX 6 26 1 -6
BITMAP
000000
000000
000000
780000
cc0000
cc0000
0c0000
180000
300000
600000
c00000
fc0000
000000
0000
0000
0000
0000
0000
0000
0000
0000
0000
0000
000000
000000
000000
ENDCHAR
STARTCHAR SupNumberThree
ENCODING 179
SWIDTH 380 0
DWIDTH 8 0
BBX 6 26 1 -6
BITMAP
0000
0000
0000
780000
cc0000
cc0000
080000
380000
0c0000
cc0000
cc0000
780000
000000
000000
000000
000000
000000
000000
000000
0000
0000
0000
0000
0000
0000
0000
ENDCHAR
STARTCHAR acuteAccent
ENCODING 180
SWIDTH 428 0
DWIDTH 9 0
BBX 5 26 2 -6
BITMAP
0000
0000
0000
0000
18
38
70
C0
0000
0000
0000
0000
0000
0000
0000
0000
0000
0000
0000
0000
0000
0000
0000
0000
0000
0000
ENDCHAR
STARTCHAR muGreek
ENCODING 181
SWIDTH 714 0
DWIDTH 15 0
BBX 14 26 0 -6
BITMAP
0000
0000
0000
0000
0000
0000
0000
0000
0000
0000
0C0C
0C0C
0C18
1818
1818
1830
3830
3C70
3FFC
679C
6000
6000
C000
C000
C000
0000
ENDCHAR
STARTCHAR ParagraphSign
ENCODING 182
SWIDTH 619 0
DWIDTH 13 0
BBX 12 26 1 -6
BITMAP
0000
0000
0000
0000
3FF0
7FF0
FCC0
FCC0
FCC0
FCC0
FCC0
7CC0
3CC0
0CC0
0CC0
0CC0
0CC0
0CC0
0CC0
0CC0
0cc0
0000
0000
0000
0000
0000
ENDCHAR
STARTCHAR middleDot
ENCODING 183
SWIDTH 333 0
DWIDTH 7 0
BBX 3 26 2 -6
BITMAP
0000
0000
0000
0000
0000
0000
0000
0000
0000
0000
E0
E0
E0
0000
0000
0000
0000
0000
0000
0000
0000
0000
0000
0000
0000
0000
ENDCHAR
STARTCHAR cedilla
ENCODING 184
SWIDTH 571 0
DWIDTH 12 0
BBX 6 26 3 -6
BITMAP
0000
0000
0000
0000
0000
0000
0000
0000
0000
0000
0000
0000
0000
0000
0000
0000
0000
0000
0000
0000
2000
3800
0c00
cc00
7800
0000
ENDCHAR
STARTCHAR SupNumberOne
ENCODING 185
SWIDTH 333 0
DWIDTH 7 0
BBX 4 26 2 -6
BITMAP
0000
0000
0000
300000
700000
f00000
300000
300000
300000
300000
300000
300000
300000
000000
000000
000000
000000
000000
000000
0000
0000
0000
0000
0000
0000
0000
ENDCHAR
STARTCHAR MaleOrdinal
ENCODING 186
SWIDTH 523 0
DWIDTH 11 0
BBX 9 26 1 -6
BITMAP
0000
0000
0000
3c
66
c3
C3
C3
C3
66
3c
00
ff80
ff80
00
00
00
0000
0000
0000
0000
0000
0000
0000
0000
0000
ENDCHAR
STARTCHAR DblClosAnglQut
ENCODING 187
SWIDTH 571 0
DWIDTH 12 0
BBX 10 26 1 -6
BITMAP
0000
0000
0000
0000
0000
0000
0000
C600
6300
7380
3180
39C0
39C0
3180
7380
6300
C600
0000
0000
0000
0000
0000
0000
0000
0000
0000
ENDCHAR
STARTCHAR FracOneFourth
ENCODING 188
SWIDTH 857 0
DWIDTH 18 0
BBX 15 26 2 -6
BITMAP
0000
0000
0000
0000
301800
701800
f03000
306000
306000
30c000
319c00
319c00
332c00
332c00
064c00
0c4c00
0c8c00
18fe00
300c00
300c00
0000
0000
0000
0000
0000
0000
ENDCHAR
STARTCHAR FracOneHalf
ENCODING 189
SWIDTH 857 0
DWIDTH 18 0
BBX 16 26 1 -6
BITMAP
0000
0000
0000
0000
301800
701800
f03000
306000
306000
30c000
319e00
31b300
333300
330300
060600
0c0c00
0c1800
183000
303000
303f00
0000
0000
0000
0000
0000
0000
ENDCHAR
STARTCHAR FracThreeFour
ENCODING 190
SWIDTH 857 0
DWIDTH 18 0
BBX 16 26 1 -6
BITMAP
0000
0000
0000
0000
780c00
cc0c00
cc1800
083000
383000
0c6000
0cce00
ccce00
cd9600
799600
032600
062600
064600
0c7f00
180600
180600
0000
0000
0000
0000
0000
0000
ENDCHAR
STARTCHAR InvertQuestion
ENCODING 191
SWIDTH 523 0
DWIDTH 11 0
BBX 9 26 1 -6
BITMAP
0000
0000
0000
0000
1C00
1C00
1C00
0000
0000
1C00
1C00
1C00
3800
3800
7000
6000
e000
C000
C180
E380
7F00
3E00
0000
0000
0000
0000
ENDCHAR
STARTCHAR Agrave
ENCODING 192
SWIDTH 761 0
DWIDTH 16 0
BBX 14 26 1 -6
BITMAP
1c00
0e00
0300
0000
0300
0300
0780
0780
0CC0
0CC0
1CE0
1860
3870
3030
7FF8
7FF8
6018
e01C
C00C
C00C
0000
0000
0000
0000
0000
0000
ENDCHAR
STARTCHAR Aacute
ENCODING 193
SWIDTH 761 0
DWIDTH 16 0
BBX 14 26 1 -6
BITMAP
00e0
01c0
0300
0000
0300
0300
0780
0780
0CC0
0CC0
1CE0
1860
3870
3030
7FF8
7FF8
6018
e01C
C00C
C00C
0000
0000
0000
0000
0000
0000
ENDCHAR
STARTCHAR Acircumflex
ENCODING 194
SWIDTH 761 0
DWIDTH 16 0
BBX 14 26 1 -6
BITMAP
0300
0780
0cc0
1860
0300
0300
0780
0780
0cC0
0CC0
1ce0
1860
3870
3030
7FF8
7FF8
6018
e01C
C00C
C00C
0000
0000
0000
0000
0000
0000
ENDCHAR
STARTCHAR Atilde
ENCODING 195
SWIDTH 761 0
DWIDTH 16 0
BBX 14 26 1 -6
BITMAP
1e10
37b0
21e0
0000
0300
0300
0780
0780
0CC0
0CC0
1CE0
1860
3870
3030
7FF8
7FF8
6018
e01C
C00C
C00C
0000
0000
0000
0000
0000
0000
ENDCHAR
STARTCHAR Adiaeresis
ENCODING 196
SWIDTH 761 0
DWIDTH 16 0
BBX 14 26 1 -6
BITMAP
0cc0
0cc0
0cc0
0000
0300
0300
0780
0780
0CC0
0CC0
1CE0
1860
3870
3030
7FF8
7FF8
6018
e01C
C00C
C00C
0000
0000
0000
0000
0000
0000
ENDCHAR
STARTCHAR Abolle
ENCODING 197
SWIDTH 761 0
DWIDTH 16 0
BBX 14 26 1 -6
BITMAP
0780
0CC0
0CC0
0CC0
0780
0300
0780
0780
0CC0
0CC0
1CE0
1860
3870
3030
3FF0
7FF8
6018
E01C
C00C
C00C
0000
0000
0000
0000
0000
0000
ENDCHAR
STARTCHAR AEdiphthong
ENCODING 198
SWIDTH 1000 0
DWIDTH 21 0
BBX 19 26 1 -6
BITMAP
0000
0000
0000
0000
03FFe0
03FFe0
066000
066000
0C6000
0C6000
1C6000
187Fe0
387Fe0
306000
3FE000
7FE000
606000
E06000
C07Fe0
C07Fe0
0000
0000
0000
0000
0000
0000
ENDCHAR
STARTCHAR Ccedilla
ENCODING 199
SWIDTH 761 0
DWIDTH 16 0
BBX 14 26 1 -6
BITMAP
0000
0000
0000
0000
07C0
1FF0
3C78
701C
600C
E000
C000
C000
C000
C000
E000
600C
701C
3C78
1FF0
07C0
0100
01C0
0060
0660
03C0
0000
ENDCHAR
STARTCHAR Egrave
ENCODING 200
SWIDTH 571 0
DWIDTH 12 0
BBX 10 26 1 -6
BITMAP
7000
3800
0c00
0000
ffc0
FFc0
c000
C000
C000
C000
c000
FFc0
ffc0
C000
C000
C000
C000
C000
FFc0
FFc0
0000
0000
0000
0000
0000
0000
ENDCHAR
STARTCHAR Eacute
ENCODING 201
SWIDTH 571 0
DWIDTH 12 0
BBX 10 26 1 -6
BITMAP
0700
0e00
1800
0000
ffc0
FFc0
c000
C000
C000
C000
c000
FFc0
ffc0
C000
C000
C000
C000
C000
FFc0
FFc0
0000
0000
0000
0000
0000
0000
ENDCHAR
STARTCHAR Ecircumflex
ENCODING 202
SWIDTH 571 0
DWIDTH 12 0
BBX 10 26 1 -6
BITMAP
0c00
1e00
3300
0000
ffc0
FFc0
c000
C000
C000
C000
c000
FFc0
ffc0
C000
C000
C000
C000
C000
FFc0
FFc0
0000
0000
0000
0000
0000
0000
ENDCHAR
STARTCHAR Ediaeresis
ENCODING 203
SWIDTH 571 0
DWIDTH 12 0
BBX 10 26 1 -6
BITMAP
3300
3300
0000
0000
ffc0
ffc0
c000
c000
c000
c000
c000
ffc0
ffc0
c000
c000
c000
c000
c000
ffc0
ffc0
0000
0000
0000
0000
0000
0000
ENDCHAR
STARTCHAR Igrave
ENCODING 204
SWIDTH 285 0
DWIDTH 6 0
BBX 4 26 0 -6
BITMAP
c0
e0
30
00
30
30
30
30
30
30
30
30
30
30
30
30
30
30
30
30
0000
0000
0000
0000
0000
0000
ENDCHAR
STARTCHAR Iacute
ENCODING 205
SWIDTH 285 0
DWIDTH 6 0
BBX 4 26 2 -6
BITMAP
30
70
c0
00
c0
c0
c0
c0
c0
c0
c0
c0
c0
c0
c0
c0
c0
c0
c0
c0
0000
0000
0000
0000
0000
0000
ENDCHAR
STARTCHAR Icircumflex
ENCODING 206
SWIDTH 285 0
DWIDTH 6 0
BBX 6 26 0 -6
BITMAP
30
78
CC
84
00
30
30
30
30
30
30
30
30
30
30
30
30
30
30
30
0000
0000
0000
0000
0000
0000
ENDCHAR
STARTCHAR Idiaeresis
ENCODING 207
SWIDTH 285 0
DWIDTH 6 0
BBX 6 26 0 -6
BITMAP
cc
CC
CC
00
00
30
30
30
30
30
30
30
30
30
30
30
30
30
30
30
0000
0000
0000
0000
0000
0000
ENDCHAR
STARTCHAR Eth
ENCODING 208
SWIDTH 714 0
DWIDTH 15 0
BBX 14 26 0 -6
BITMAP
0000
0000
0000
0000
3f80
3fe0
30f0
3038
3018
301c
300c
fe0c
fe0c
300c
301c
3018
3038
30f0
3fe0
3f80
0000
0000
0000
0000
0000
0000
ENDCHAR
STARTCHAR Ntilde
ENCODING 209
SWIDTH 666 0
DWIDTH 14 0
BBX 12 26 1 -6
BITMAP
3840
6ec0
4780
0000
e030
f030
f030
d830
d830
cc30
cc30
c630
c630
c330
c330
c1b0
c1b0
c0f0
c0f0
c070
0000
0000
0000
0000
0000
0000
ENDCHAR
STARTCHAR Ograve
ENCODING 210
SWIDTH 809 0
DWIDTH 17 0
BBX 15 26 1 -6
BITMAP
1c00
0e00
0300
0000
07C0
1FF0
3C78
701C
600C
E00E
C006
C006
C006
C006
E00E
600C
701C
3C78
1FF0
07C0
0000
0000
0000
0000
0000
0000
ENDCHAR
STARTCHAR Oacute
ENCODING 211
SWIDTH 809 0
DWIDTH 17 0
BBX 15 26 1 -6
BITMAP
0070
00e0
0180
0000
07C0
1FF0
3C78
701C
600C
E00E
C006
C006
C006
C006
E00E
600C
701C
3C78
1FF0
07C0
0000
0000
0000
0000
0000
0000
ENDCHAR
STARTCHAR Ocircumflex
ENCODING 212
SWIDTH 809 0
DWIDTH 17 0
BBX 15 26 1 -6
BITMAP
0300
0780
0cc0
0000
07C0
1FF0
3C78
701C
600C
E00E
C006
C006
C006
C006
E00E
600C
701C
3C78
1FF0
07C0
0000
0000
0000
0000
0000
0000
ENDCHAR
STARTCHAR Otilde
ENCODING 213
SWIDTH 809 0
DWIDTH 17 0
BBX 15 26 1 -6
BITMAP
0f08
1bd8
10f0
0000
07C0
1FF0
3C78
701C
600C
E00E
C006
C006
C006
C006
E00E
600C
701C
3C78
1FF0
07C0
0000
0000
0000
0000
0000
0000
ENDCHAR
STARTCHAR Odiaeresis
ENCODING 214
SWIDTH 809 0
DWIDTH 17 0
BBX 15 26 1 -6
BITMAP
0c60
0c60
0c60
0000
07C0
1FF0
3C78
701C
600C
E00E
C006
C006
C006
C006
E00E
600C
701C
3C78
1FF0
07C0
0000
0000
0000
0000
0000
0000
ENDCHAR
STARTCHAR MultiplySign
ENCODING 215
SWIDTH 761 0
DWIDTH 16 0
BBX 10 26 3 -6
BITMAP
0000
0000
0000
0000
0000
0000
0000
c0c0
e1c0
7380
3f00
1e00
1e00
3f00
7380
e1c0
c0c0
0000
0000
0000
0000
0000
0000
0000
0000
0000
ENDCHAR
STARTCHAR Ooblique
ENCODING 216
SWIDTH 809 0
DWIDTH 17 0
BBX 15 26 1 -6
BITMAP
0000
0000
0018
0018
07d0
1FF0
3C78
707C
60CC
E0CE
C186
C186
C306
C306
E60E
660C
7C1C
3C78
1FF0
1bC0
3000
3000
0000
0000
0000
0000
ENDCHAR
STARTCHAR Ugrave
ENCODING 217
SWIDTH 666 0
DWIDTH 14 0
BBX 12 26 1 -6
BITMAP
7000
3800
0C00
0000
c030
C030
C030
C030
C030
C030
C030
C030
C030
C030
C030
C030
6060
70E0
3FC0
0F00
0000
0000
0000
0000
0000
0000
ENDCHAR
STARTCHAR Uacute
ENCODING 218
SWIDTH 666 0
DWIDTH 14 0
BBX 12 26 1 -6
BITMAP
00c0
01c0
0380
0600
c030
C030
C030
C030
C030
C030
C030
C030
C030
C030
C030
C030
6060
70E0
3FC0
0F00
0000
0000
0000
0000
0000
0000
ENDCHAR
STARTCHAR Ucircumflex
ENCODING 219
SWIDTH 666 0
DWIDTH 14 0
BBX 12 26 1 -6
BITMAP
0600
0F00
1980
0000
c030
C030
C030
C030
C030
C030
C030
C030
C030
C030
C030
C030
6060
70E0
3FC0
0F00
0000
0000
0000
0000
0000
0000
ENDCHAR
STARTCHAR Udiaeresis
ENCODING 220
SWIDTH 666 0
DWIDTH 14 0
BBX 12 26 1 -6
BITMAP
18C0
18C0
18c0
0000
c030
C030
C030
C030
C030
C030
C030
C030
C030
C030
C030
C030
6060
70E0
3FC0
0F00
0000
0000
0000
0000
0000
0000
ENDCHAR
STARTCHAR Yacute
ENCODING 221
SWIDTH 761 0
DWIDTH 16 0
BBX 14 26 1 -6
BITMAP
0060
00e0
01c0
0300
0000
C00C
E01C
7038
3030
1860
1CE0
0FC0
0780
0300
0300
0300
0300
0300
0300
0300
0000
0000
0000
0000
0000
0000
ENDCHAR
STARTCHAR Thorn
ENCODING 222
SWIDTH 523 0
DWIDTH 11 0
BBX 9 26 1 -6
BITMAP
0000
0000
0000
0000
c000
c000
c000
fc00
ff00
c300
c180
c180
c180
c300
ff00
fc00
c000
c000
c000
c000
0000
0000
0000
0000
0000
0000
ENDCHAR
STARTCHAR EsZetLigature
ENCODING 223
SWIDTH 571 0
DWIDTH 12 0
BBX 10 26 1 -6
BITMAP
0000
0000
0000
0000
3e00
7f00
e380
c180
c180
c300
ce00
cf00
c380
c180
c0c0
c0c0
d8c0
d9c0
df80
cf00
c000
c000
0000
0000
0000
0000
ENDCHAR
STARTCHAR agrave
ENCODING 224
SWIDTH 571 0
DWIDTH 12 0
BBX 10 26 1 -6
BITMAP
0000
0000
0000
0000
6000
7000
3800
0C00
0000
0000
1F00
7F80
6180
00C0
1FC0
7FC0
E0C0
C1C0
FFC0
7CC0
0000
0000
0000
0000
0000
0000
ENDCHAR
STARTCHAR aacute
ENCODING 225
SWIDTH 571 0
DWIDTH 12 0
BBX 10 26 1 -6
BITMAP
0000
0000
0000
0000
0180
0380
0700
0c00
0000
0000
1F00
7F80
6180
00C0
1FC0
7FC0
E0C0
C1C0
FFC0
7CC0
0000
0000
0000
0000
0000
0000
ENDCHAR
STARTCHAR acircumflex
ENCODING 226
SWIDTH 571 0
DWIDTH 12 0
BBX 10 26 1 -6
BITMAP
0000
0000
0000
0000
0400
0e00
1b00
3180
0000
0000
1F00
7F80
6180
00C0
1FC0
7FC0
E0C0
C1C0
FFC0
7CC0
0000
0000
0000
0000
0000
0000
ENDCHAR
STARTCHAR atilde
ENCODING 227
SWIDTH 571 0
DWIDTH 12 0
BBX 10 26 1 -6
BITMAP
0000
0000
0000
0000
0000
3880
6d80
4700
0000
0000
1f00
7f80
6180
00c0
1fc0
7fc0
e0c0
c1c0
ffc0
7cc0
0000
0000
0000
0000
0000
0000
ENDCHAR
STARTCHAR adiaeresis
ENCODING 228
SWIDTH 571 0
DWIDTH 12 0
BBX 10 26 1 -6
BITMAP
0000
0000
0000
0000
0000
3180
3180
3180
0000
0000
1F00
7F80
6180
00C0
1FC0
7FC0
E0C0
C1C0
FFC0
7CC0
0000
0000
0000
0000
0000
0000
ENDCHAR
STARTCHAR abolle
ENCODING 229
SWIDTH 571 0
DWIDTH 12 0
BBX 10 26 1 -6
BITMAP
0000
0000
0000
1e00
3300
3300
3300
1e00
0000
0000
1F00
7F80
6180
00C0
1FC0
7FC0
E0C0
C1C0
FFC0
7CC0
0000
0000
0000
0000
0000
0000
ENDCHAR
STARTCHAR aedihthong
ENCODING 230
SWIDTH 904 0
DWIDTH 19 0
BBX 17 26 1 -6
BITMAP
0000
0000
0000
0000
0000
0000
0000
0000
0000
0000
1E3C00
7FFF00
63C300
018180
1FFF80
7FFF80
E18000
C3C180
FFFF80
7C3E00
0000
0000
0000
0000
0000
0000
ENDCHAR
STARTCHAR ccedilla
ENCODING 231
SWIDTH 523 0
DWIDTH 11 0
BBX 9 26 1 -6
BITMAP
0000
0000
0000
0000
0000
0000
0000
0000
0000
0000
1E00
7F80
6180
C000
C000
C000
C000
6180
7F80
1E00
0800
0E00
0300
3300
1E00
0000
ENDCHAR
STARTCHAR egrave
ENCODING 232
SWIDTH 571 0
DWIDTH 12 0
BBX 10 26 1 -6
BITMAP
0000
0000
0000
0000
6000
7000
3800
0C00
0000
0000
1E00
7F80
6180
C0C0
FFC0
FFC0
C000
60C0
7FC0
1F00
0000
0000
0000
0000
0000
0000
ENDCHAR
STARTCHAR eacute
ENCODING 233
SWIDTH 571 0
DWIDTH 12 0
BBX 10 26 1 -6
BITMAP
0000
0000
0000
0000
0180
0380
0700
0c00
0000
0000
1E00
7F80
6180
C0C0
FFC0
FFC0
C000
60C0
7FC0
1F00
0000
0000
0000
0000
0000
0000
ENDCHAR
STARTCHAR ecircumflex
ENCODING 234
SWIDTH 571 0
DWIDTH 12 0
BBX 10 26 1 -6
BITMAP
0000
0000
0000
0000
0400
0e00
1f00
3180
0000
0000
1E00
7F80
6180
C0C0
FFC0
FFC0
C000
60C0
7FC0
1F00
0000
0000
0000
0000
0000
0000
ENDCHAR
STARTCHAR ediaeresis
ENCODING 235
SWIDTH 571 0
DWIDTH 12 0
BBX 10 26 1 -6
BITMAP
0000
0000
0000
0000
0000
3180
3180
3180
0000
0000
1E00
7F80
6180
C0C0
FFC0
FFC0
C000
60C0
7FC0
1F00
0000
0000
0000
0000
0000
0000
ENDCHAR
STARTCHAR igrave
ENCODING 236
SWIDTH 285 0
DWIDTH 6 0
BBX 4 26 0 -6
BITMAP
0000
0000
0000
0000
0000
00
c0
e0
30
00
30
30
30
30
30
30
30
30
30
30
0000
0000
0000
0000
0000
0000
ENDCHAR
STARTCHAR iacute
ENCODING 237
SWIDTH 285 0
DWIDTH 6 0
BBX 4 26 2 -6
BITMAP
0000
0000
0000
0000
0000
30
70
c0
00
00
c0
c0
c0
c0
c0
c0
c0
c0
c0
c0
0000
0000
0000
0000
0000
0000
ENDCHAR
STARTCHAR icircumflex
ENCODING 238
SWIDTH 285 0
DWIDTH 6 0
BBX 6 26 0 -6
BITMAP
0000
0000
0000
0000
3000
78
cc
84
00
00
30
30
30
30
30
30
30
30
30
30
0000
0000
0000
0000
0000
0000
ENDCHAR
STARTCHAR idiaeresis
ENCODING 239
SWIDTH 285 0
DWIDTH 6 0
BBX 6 26 0 -6
BITMAP
0000
0000
0000
0000
0000
CC
CC
cc
00
00
30
30
30
30
30
30
30
30
30
30
0000
0000
0000
0000
0000
0000
ENDCHAR
STARTCHAR ethIcelandic
ENCODING 240
SWIDTH 571 0
DWIDTH 12 0
BBX 10 26 1 -6
BITMAP
0000
0000
0000
0000
7180
7f00
0e00
1f00
3300
0180
1f80
7FC0
61C0
C0C0
C0C0
C0C0
C0C0
6180
7F80
1E00
0000
0000
0000
0000
0000
0000
ENDCHAR
STARTCHAR ntilde
ENCODING 241
SWIDTH 523 0
DWIDTH 11 0
BBX 9 26 1 -6
BITMAP
0000
0000
0000
0000
6100
f900
9f00
8600
0000
0000
de00
ff00
e380
c180
c180
c180
c180
c180
c180
c180
0000
0000
0000
0000
0000
0000
ENDCHAR
STARTCHAR ograve
ENCODING 242
SWIDTH 571 0
DWIDTH 12 0
BBX 10 26 1 -6
BITMAP
0000
0000
0000
0000
6000
7000
3800
0C00
0000
0000
1E00
7F80
6180
C0C0
C0C0
C0C0
C0C0
6180
7F80
1E00
0000
0000
0000
0000
0000
0000
ENDCHAR
STARTCHAR oacute
ENCODING 243
SWIDTH 571 0
DWIDTH 12 0
BBX 10 26 1 -6
BITMAP
0000
0000
0000
0000
0180
0380
0700
0c00
0000
0000
1E00
7F80
6180
C0C0
C0C0
C0C0
C0C0
6180
7F80
1E00
0000
0000
0000
0000
0000
0000
ENDCHAR
STARTCHAR ocircumflex
ENCODING 244
SWIDTH 571 0
DWIDTH 12 0
BBX 10 26 1 -6
BITMAP
0000
0000
0000
0000
0c00
1e00
3300
6180
0000
0000
1E00
7F80
6180
C0C0
C0C0
C0C0
C0C0
6180
7F80
1E00
0000
0000
0000
0000
0000
0000
ENDCHAR
STARTCHAR otilde
ENCODING 245
SWIDTH 571 0
DWIDTH 12 0
BBX 10 26 1 -6
BITMAP
0000
0000
0000
0000
0000
3880
7f80
4700
0000
0000
1E00
7F80
6180
C0C0
C0C0
C0C0
C0C0
6180
7F80
1E00
0000
0000
0000
0000
0000
0000
ENDCHAR
STARTCHAR odiaeresis
ENCODING 246
SWIDTH 571 0
DWIDTH 12 0
BBX 10 26 1 -6
BITMAP
0000
0000
0000
0000
0000
3180
3180
3180
0000
0000
1E00
7F80
6180
C0C0
C0C0
C0C0
C0C0
6180
7F80
1E00
0000
0000
0000
0000
0000
0000
ENDCHAR
STARTCHAR DivideSign
ENCODING 247
SWIDTH 761 0
DWIDTH 16 0
BBX 12 26 2 -6
BITMAP
0000
0000
0000
0000
0000
0000
0600
0f00
0600
0000
0000
FFF0
FFF0
0000
0000
0600
0f00
0600
0000
0000
0000
0000
0000
0000
0000
0000
ENDCHAR
STARTCHAR ooblique
ENCODING 248
SWIDTH 571 0
DWIDTH 12 0
BBX 10 26 1 -6
BITMAP
0000
0000
0000
0000
0000
0000
0000
0000
0080
0180
1F00
7F80
6380
C6C0
CCC0
CCC0
D8C0
7180
7F80
3E00
6000
4000
0000
0000
0000
0000
ENDCHAR
STARTCHAR ugrave
ENCODING 249
SWIDTH 523 0
DWIDTH 11 0
BBX 9 26 1 -6
BITMAP
0000
0000
0000
0000
c000
E000
7000
1800
0000
0000
C180
C180
C180
C180
C180
C180
C180
E380
7F80
3D80
0000
0000
0000
0000
0000
0000
ENDCHAR
STARTCHAR uacute
ENCODING 250
SWIDTH 523 0
DWIDTH 11 0
BBX 9 26 1 -6
BITMAP
0000
0000
0000
0000
0300
0700
0e00
1800
0000
0000
C180
C180
C180
C180
C180
C180
C180
E380
7F80
3D80
0000
0000
0000
0000
0000
0000
ENDCHAR
STARTCHAR ucircumflex
ENCODING 251
SWIDTH 523 0
DWIDTH 11 0
BBX 9 26 1 -6
BITMAP
0000
0000
0000
0000
0800
1c00
3600
6300
0000
0000
C180
C180
C180
C180
C180
C180
C180
E380
7F80
3D80
0000
0000
0000
0000
0000
0000
ENDCHAR
STARTCHAR udiaeresis
ENCODING 252
SWIDTH 523 0
DWIDTH 11 0
BBX 9 26 1 -6
BITMAP
0000
0000
0000
0000
0000
6300
6300
6300
0000
0000
C180
C180
C180
C180
C180
C180
C180
E380
7F80
3D80
0000
0000
0000
0000
0000
0000
ENDCHAR
STARTCHAR yacute
ENCODING 253
SWIDTH 571 0
DWIDTH 12 0
BBX 10 26 1 -6
BITMAP
0000
0000
0000
0000
0000
0180
0380
0700
0c00
0000
C0C0
C0C0
6180
6180
3300
3300
1E00
1E00
0C00
0C00
1800
1800
3000
3000
6000
0000
ENDCHAR
STARTCHAR thorn
ENCODING 254
SWIDTH 571 0
DWIDTH 12 0
BBX 10 26 1 -6
BITMAP
0000
0000
0000
0000
C000
C000
C000
C000
C000
de00
ff80
e180
c0c0
c0C0
c0C0
c0C0
c0C0
e180
fF80
dE00
C000
C000
C000
C000
C000
0000
ENDCHAR
STARTCHAR ydiaeresis
ENCODING 255
SWIDTH 571 0
DWIDTH 12 0
BBX 10 26 1 -6
BITMAP
0000
0000
0000
0000
0000
6180
6180
6180
0000
0000
C0C0
C0C0
6180
6180
3300
3300
1E00
1E00
0C00
0C00
1800
1800
3000
3000
6000
0000
ENDCHAR
ENDFONT
